# xmcd
#
# Track frame offsets:
# 150
# 15782
# 37314
# 57442
# 73485
# 91869
# 117064
# 134100
# 145629
# 160465
# 177283
# 198725
#
# Disc length: 2921 seconds
#
#
# Revision: 0
# Processed by: cddbd v1.5.2PL0 Copyright (c) Steve Scherf et al.
# Submitted via: FreeRIP 2.93 
#
DISCID=b20b670c
DTITLE=Codorus Cruise Line, The - Down That Alley
DYEAR=2007
DGENRE=Rock and Roll
TTITLE0=01-Down That Alley
TTITLE1=02-Train Station
TTITLE2=03-Home For Hollywood
TTITLE3=04-Go Away
TTITLE4=05-Kindness or Chaos
TTITLE5=06-462
TTITLE6=07-Life I Choose
TTITLE7=08-Schmock Song
TTITLE8=09-$3 Six Pack
TTITLE9=10-Concur
TTITLE10=11-Ten Shades of Blue
TTITLE11=12-Loogie
EXTD=Brady Henry, Jeremy Schlosser, Sean Deibert www.codoruscruiseline.com
EXTT0=
EXTT1=
EXTT2=
EXTT3=
EXTT4=
EXTT5=
EXTT6=
EXTT7=
EXTT8=
EXTT9=
EXTT10=
EXTT11=
PLAYORDER=
